<?xml version="1.0" encoding="utf-8"?>
<!-- Generator: Adobe Illustrator 16.0.0, SVG Export Plug-In . SVG Version: 6.00 Build 0)  -->
<!DOCTYPE svg PUBLIC "-//W3C//DTD SVG 1.1//EN" "http://www.w3.org/Graphics/SVG/1.1/DTD/svg11.dtd">
<svg version="1.1" id="Layer_1" xmlns="http://www.w3.org/2000/svg" xmlns:xlink="http://www.w3.org/1999/xlink" x="0px" y="0px"
	 width="26px" height="17px" viewBox="0 0 26 17" enable-background="new 0 0 26 17" xml:space="preserve">
<path fill="#FFB807" d="M25.339,10.561c-0.083-0.084-0.183-0.15-0.293-0.196c-0.109-0.046-0.228-0.069-0.346-0.069
	c-0.119,0-0.237,0.023-0.347,0.069s-0.209,0.112-0.293,0.196L21.1,13.531V6.7c0-0.239-0.094-0.468-0.264-0.637
	C20.668,5.895,20.438,5.8,20.2,5.8c-0.239,0-0.468,0.095-0.637,0.264C19.395,6.232,19.3,6.461,19.3,6.7v6.831l-2.961-2.971
	c-0.169-0.169-0.399-0.264-0.639-0.264s-0.47,0.095-0.64,0.264c-0.169,0.17-0.264,0.4-0.264,0.64s0.095,0.47,0.264,0.639l4.5,4.5
	c0.086,0.082,0.188,0.146,0.297,0.189c0.108,0.048,0.225,0.071,0.343,0.071s0.233-0.023,0.342-0.071
	c0.11-0.043,0.212-0.107,0.297-0.189l4.5-4.5c0.085-0.083,0.151-0.183,0.197-0.292c0.046-0.11,0.069-0.229,0.069-0.347
	c0-0.119-0.023-0.237-0.069-0.347S25.424,10.645,25.339,10.561L25.339,10.561z"/>
<path fill="#FFB807" d="M10.939,6.439c-0.083,0.084-0.183,0.151-0.293,0.197c-0.109,0.046-0.227,0.069-0.346,0.069
	c-0.119,0-0.236-0.023-0.346-0.069C9.844,6.59,9.745,6.523,9.661,6.439L6.7,3.469V10.3c0,0.239-0.095,0.468-0.264,0.637
	C6.268,11.105,6.039,11.2,5.8,11.2c-0.238,0-0.467-0.095-0.636-0.264S4.9,10.539,4.9,10.3V3.469l-2.961,2.97
	C1.77,6.608,1.54,6.704,1.3,6.704c-0.239,0-0.469-0.095-0.639-0.265S0.396,6.04,0.396,5.8s0.095-0.469,0.265-0.639l4.5-4.5
	c0.085-0.082,0.187-0.146,0.297-0.189C5.566,0.424,5.682,0.4,5.8,0.4c0.118,0,0.234,0.024,0.342,0.072
	c0.11,0.042,0.211,0.107,0.297,0.189l4.5,4.5c0.084,0.083,0.151,0.183,0.197,0.292c0.045,0.11,0.069,0.228,0.069,0.346
	c0,0.119-0.023,0.237-0.069,0.346C11.09,6.256,11.023,6.355,10.939,6.439L10.939,6.439z"/>
</svg>
