<?xml version="1.0" encoding="utf-8"?>
<!-- Generator: Adobe Illustrator 16.0.0, SVG Export Plug-In . SVG Version: 6.00 Build 0)  -->
<!DOCTYPE svg PUBLIC "-//W3C//DTD SVG 1.1//EN" "http://www.w3.org/Graphics/SVG/1.1/DTD/svg11.dtd">
<svg version="1.1" id="Layer_1" xmlns="http://www.w3.org/2000/svg" xmlns:xlink="http://www.w3.org/1999/xlink" x="0px" y="0px"
	 width="18px" height="18px" viewBox="0 0 18 18" enable-background="new 0 0 18 18" xml:space="preserve">
<path fill="#ADBCC7" d="M9,7C8.604,7,8.218,7.117,7.889,7.337C7.56,7.557,7.304,7.869,7.152,8.234C7.001,8.6,6.961,9.002,7.039,9.39
	c0.077,0.387,0.268,0.745,0.547,1.024c0.279,0.279,0.636,0.471,1.024,0.547c0.388,0.078,0.79,0.038,1.156-0.113
	c0.365-0.15,0.678-0.408,0.897-0.736C10.883,9.782,11,9.396,11,9c0-0.53-0.211-1.039-0.586-1.414S9.529,7,9,7z M2,7
	C1.604,7,1.218,7.117,0.889,7.337C0.56,7.557,0.304,7.869,0.152,8.234C0.001,8.6-0.039,9.002,0.039,9.39
	c0.077,0.387,0.268,0.745,0.547,1.024c0.279,0.279,0.636,0.471,1.024,0.547c0.388,0.078,0.79,0.038,1.155-0.113
	c0.366-0.15,0.678-0.408,0.898-0.736C3.883,9.782,4,9.396,4,9c0-0.53-0.211-1.039-0.586-1.414S2.53,7,2,7z M16,7
	c-0.396,0-0.782,0.117-1.111,0.337c-0.328,0.22-0.584,0.532-0.736,0.897C14.001,8.6,13.961,9.002,14.039,9.39
	c0.076,0.387,0.268,0.745,0.547,1.024s0.637,0.471,1.023,0.547c0.389,0.078,0.791,0.038,1.156-0.113
	c0.364-0.15,0.678-0.408,0.896-0.736C17.883,9.782,18,9.396,18,9c0-0.53-0.211-1.039-0.586-1.414S16.529,7,16,7z"/>
</svg>
