<?xml version="1.0" encoding="utf-8"?>
<!-- Generator: Adobe Illustrator 16.0.0, SVG Export Plug-In . SVG Version: 6.00 Build 0)  -->
<!DOCTYPE svg PUBLIC "-//W3C//DTD SVG 1.1//EN" "http://www.w3.org/Graphics/SVG/1.1/DTD/svg11.dtd">
<svg version="1.1" id="Capa_1" xmlns="http://www.w3.org/2000/svg" xmlns:xlink="http://www.w3.org/1999/xlink" x="0px" y="0px"
	 width="100px" height="100px" viewBox="0 0 100 100" enable-background="new 0 0 100 100" xml:space="preserve">
<g>
	<g>
		<path d="M67.578,62.305c-1.078,0-1.953,0.875-1.953,1.953v13.477c0,5.385-4.381,9.766-9.766,9.766H34.772
			c-1.079,0-1.953,0.873-1.953,1.951l-0.003,3.884l-4.662-4.661c-0.302-0.693-0.992-1.174-1.791-1.174H13.672
			c-5.385,0-9.766-4.381-9.766-9.766V47.656c0-5.385,4.381-9.766,9.766-9.766h19.727c1.079,0,1.953-0.875,1.953-1.953
			s-0.875-1.953-1.953-1.953H13.672C6.133,33.984,0,40.118,0,47.656v30.078c0,7.539,6.133,13.672,13.672,13.672h11.691l8.022,8.021
			c0.374,0.374,0.873,0.572,1.381,0.572c0.251,0,0.505-0.049,0.746-0.148c0.73-0.302,1.206-1.014,1.207-1.803l0.005-6.643h19.136
			c7.539,0,13.672-6.133,13.672-13.672V64.258C69.531,63.18,68.656,62.305,67.578,62.305z"/>
	</g>
</g>
<g>
	<g>
		<path d="M71.612,0h-4.943C51.016,0,38.281,12.735,38.281,28.388c0,15.653,12.734,28.388,28.388,28.388h4.943
			c2.442,0,4.861-0.311,7.205-0.924l7.302,7.299c0.374,0.373,0.873,0.571,1.381,0.571c0.252,0,0.506-0.049,0.748-0.149
			c0.729-0.302,1.205-1.014,1.205-1.804v-11.3c3.092-2.504,5.66-5.667,7.462-9.2C98.963,37.256,100,32.922,100,28.388
			C100,12.735,87.266,0,71.612,0z M86.324,47.956c-0.489,0.369-0.777,0.947-0.777,1.56v7.539l-4.779-4.776
			c-0.372-0.372-0.871-0.571-1.381-0.571c-0.191,0-0.385,0.027-0.574,0.086c-2.324,0.715-4.747,1.076-7.2,1.076h-4.943
			c-13.499,0-24.481-10.982-24.481-24.481c0-13.499,10.982-24.481,24.481-24.481h4.943c13.499,0,24.481,10.982,24.481,24.481
			C96.094,36.148,92.533,43.28,86.324,47.956z"/>
	</g>
</g>
<g>
	<g>
		<path d="M77.936,21.371c-0.281-4.089-3.577-7.385-7.666-7.667c-2.318-0.159-4.53,0.623-6.224,2.203
			c-1.67,1.559-2.628,3.762-2.628,6.046c0,1.079,0.875,1.953,1.953,1.953c1.079,0,1.953-0.875,1.953-1.953
			c0-1.223,0.493-2.355,1.387-3.19c0.894-0.834,2.062-1.247,3.29-1.162c2.153,0.148,3.89,1.885,4.038,4.039
			c0.15,2.175-1.277,4.097-3.393,4.571c-1.715,0.384-2.912,1.874-2.912,3.623v4.692c0,1.079,0.875,1.953,1.953,1.953
			s1.953-0.875,1.953-1.953V29.99C75.576,29.039,78.217,25.438,77.936,21.371z"/>
	</g>
</g>
<g>
	<g>
		<path d="M71.068,40.871c-0.363-0.363-0.867-0.572-1.381-0.572s-1.018,0.209-1.381,0.572s-0.572,0.867-0.572,1.381
			c0,0.516,0.209,1.02,0.572,1.383s0.867,0.57,1.381,0.57s1.018-0.207,1.381-0.57c0.363-0.365,0.572-0.867,0.572-1.383
			C71.641,41.738,71.432,41.234,71.068,40.871z"/>
	</g>
</g>
<g>
	<g>
		<path d="M53.711,60.547H12.5c-1.079,0-1.953,0.875-1.953,1.953s0.875,1.953,1.953,1.953h41.211c1.078,0,1.953-0.875,1.953-1.953
			S54.789,60.547,53.711,60.547z"/>
	</g>
</g>
<g>
	<g>
		<path d="M55.092,72.057c-0.363-0.363-0.867-0.572-1.381-0.572s-1.018,0.209-1.381,0.572s-0.572,0.867-0.572,1.381
			s0.209,1.018,0.572,1.381s0.867,0.572,1.381,0.572s1.018-0.209,1.381-0.572s0.572-0.865,0.572-1.381
			C55.664,72.924,55.455,72.42,55.092,72.057z"/>
	</g>
</g>
<g>
	<g>
		<path d="M46.029,71.484H12.5c-1.079,0-1.953,0.875-1.953,1.953s0.875,1.953,1.953,1.953h33.529c1.079,0,1.953-0.875,1.953-1.953
			S47.107,71.484,46.029,71.484z"/>
	</g>
</g>
<g>
	<g>
		<path d="M41.016,49.609H12.5c-1.079,0-1.953,0.875-1.953,1.953c0,1.078,0.875,1.953,1.953,1.953h28.516
			c1.079,0,1.953-0.875,1.953-1.953C42.969,50.484,42.094,49.609,41.016,49.609z"/>
	</g>
</g>
</svg>
