<?xml version="1.0" encoding="utf-8"?>
<!-- Generator: Adobe Illustrator 16.0.0, SVG Export Plug-In . SVG Version: 6.00 Build 0)  -->
<!DOCTYPE svg PUBLIC "-//W3C//DTD SVG 1.1//EN" "http://www.w3.org/Graphics/SVG/1.1/DTD/svg11.dtd">
<svg version="1.1" id="Layer_1" xmlns="http://www.w3.org/2000/svg" xmlns:xlink="http://www.w3.org/1999/xlink" x="0px" y="0px"
	 width="100px" height="100px" viewBox="0 0 100 100" enable-background="new 0 0 100 100" xml:space="preserve">
<g id="Shape_18_1_" enable-background="new    ">
	<g>
		<g id="Shape_18">
			<g>
				<path fill="#414042" d="M38.155,75.479c-2.304,0.302-4.729,0.461-7.25,0.461c-12.539,0-23.008-4.012-25.466-9.354
					C5.081,67.362,4.891,68.177,4.891,69v2.554c0,6.495,11.648,11.767,26.015,11.767c2.87,0,5.635-0.214,8.217-0.596
					c-0.643-1.311-0.967-2.678-0.967-4.12V75.479z M30.909,70.18c2.511,0,4.946-0.166,7.248-0.469v-7.377
					c-2.302,0.307-4.731,0.469-7.248,0.469c-12.542,0-23.008-4.02-25.467-9.362c-0.357,0.778-0.548,1.584-0.548,2.411v2.551
					C4.892,64.904,16.542,70.18,30.909,70.18z M68.403,83.011c-12.533,0-23-4.028-25.454-9.363c-0.361,0.779-0.55,1.594-0.55,2.399
					v2.563c0,6.502,11.639,11.773,26.003,11.773c14.371,0,26.02-5.271,26.02-11.773v-2.563c0-0.822-0.183-1.629-0.541-2.399
					C91.419,78.982,80.948,83.011,68.403,83.011z M30.909,57.03c2.511,0,4.946-0.17,7.248-0.46V31.391
					c-2.302-0.302-4.735-0.462-7.248-0.462c-14.368,0-26.015,5.263-26.015,11.775v2.555C4.892,51.757,16.542,57.03,30.909,57.03z
					 M68.403,69.854c-12.533,0-23-4.008-25.454-9.359c-0.361,0.783-0.55,1.589-0.55,2.416v2.55c0,6.507,11.639,11.774,26.003,11.774
					c14.371,0,26.02-5.268,26.02-11.774v-2.55c0-0.827-0.183-1.637-0.541-2.416C91.419,65.846,80.948,69.854,68.403,69.854z
					 M68.403,42.852c-12.533,0-23-4.01-25.454-9.363c-0.361,0.779-0.55,1.583-0.55,2.419v2.548c0,6.505,11.639,11.778,26.003,11.778
					c14.371,0,26.02-5.273,26.02-11.778v-2.548c0-0.829-0.183-1.641-0.541-2.419C91.419,38.841,80.948,42.852,68.403,42.852z
					 M68.403,10.983c-14.364,0-26.003,5.27-26.003,11.78v2.551c0,6.504,11.639,11.768,26.003,11.768
					c14.371,0,26.02-5.264,26.02-11.768v-2.551C94.423,16.252,82.774,10.983,68.403,10.983z M68.403,56.002
					c-12.533,0-23-4.016-25.454-9.365c-0.361,0.776-0.55,1.583-0.55,2.413v2.558c0,6.503,11.639,11.771,26.003,11.771
					c14.371,0,26.02-5.268,26.02-11.771V49.05c0-0.83-0.183-1.637-0.541-2.413C91.419,51.986,80.948,56.002,68.403,56.002z"/>
			</g>
		</g>
	</g>
</g>
</svg>
